# xmcd CD database file
#
# Track frame offsets:
#	150
#	20725
#	39516
#	57510
#	76793
#	118769
#	135796
#	153102
#	174083
#	191494
#	209706
#	229228
#	249135
#	266106
#	285428
#	303704
#
# Disc length: 4640 seconds
#
# Revision: 1
# Processed by: cddbd v1.5.2PL0 Copyright (c) Steve Scherf et al.
# Submitted via: CDex 1.51
#
DISCID=d4121e10
DTITLE=BUNK JOHNSON - Saints Go Marching in
DYEAR=1900
DGENRE=Jazz
TTITLE0=Low Down Blues (Trad.)
TTITLE1=St Louis Blues (Handy)
TTITLE2=Blue As I Can Be (Jones)
TTITLE3=New Iberia Blues (Johnson)
TTITLE4=Midnight Blues (Johnson)
TTITLE5=Dippermouth Blues (Oliver)
TTITLE6=C. C. Rider (Handy)
TTITLE7=Careless Love (Williams, Koenig, Handy)
TTITLE8=Walk Through The Streets (Johnson)
TTITLE9=Sister Kate (Piron)
TTITLE10=Lord, Lord, You've Been Good To Me (Trad.)
TTITLE11=Darktown Strutters Ball (Brooks)
TTITLE12=Yes, Yes In Your Eyes (Johnson)
TTITLE13=Weary Blues (Matthews)
TTITLE14=Saints Go Marching In (Trad.)
TTITLE15=Midnight Blues II (Johnson)
EXTD=
EXTT0=
EXTT1=
EXTT2=
EXTT3=
EXTT4=
EXTT5=
EXTT6=
EXTT7=
EXTT8=
EXTT9=
EXTT10=
EXTT11=
EXTT12=
EXTT13=
EXTT14=
EXTT15=
PLAYORDER=
